# xmcd
#
# Track frame offsets: 
#        150
#        12977
#        26367
#        39800
#        67842
#        80552
#        92377
#        108962
#        121570
#        134770
#        146507
#        160100
#        176055
#        190327
#        210042
#        232187
#        245190
#        259602
#
# Disc length: 3626 seconds
#
# Revision: 6
# Processed by: cddbd v1.5.2PL0 Copyright (c) Steve Scherf et al.
# Submitted via: ExactAudioCopy v1.3
#
DISCID=e40e2812
DTITLE=Ray Charles - The Very Best Of Ray Charles
DYEAR=1993
DGENRE=Blues
TTITLE0=Unchain My Heart
TTITLE1=You Are My Sunshine
TTITLE2=Eleanor Rigby
TTITLE3=Makin' Whoopee
TTITLE4=My Heart Cries For You
TTITLE5=Don't See Me Free
TTITLE6=Waht Am I Living For
TTITLE7=If You Were Mine
TTITLE8=Crying Time
TTITLE9=In The Heat Of The Night
TTITLE10=At The Club
TTITLE11=Cry
TTITLE12=Hide Nor Hair
TTITLE13=That Lucky Old Sun
TTITLE14=If It Wasn't For Bad Luck
TTITLE15=Let's Go Get Stoned
TTITLE16=No One
TTITLE17=Yesterday
EXTD=
EXTT0=
EXTT1=
EXTT2=
EXTT3=
EXTT4=
EXTT5=
EXTT6=
EXTT7=
EXTT8=
EXTT9=
EXTT10=
EXTT11=
EXTT12=
EXTT13=
EXTT14=
EXTT15=
EXTT16=
EXTT17=
PLAYORDER=
